<svg xmlns="http://www.w3.org/2000/svg" viewBox="0 0 32 32" fill="none">
  <defs>
    <linearGradient id="base" x1="0" y1="0" x2="32" y2="32" gradientUnits="userSpaceOnUse">
      <stop offset="0%" stop-color="#059669" />
      <stop offset="100%" stop-color="#34D399" />
    </linearGradient>
    <radialGradient id="hl" cx="0" cy="0" r="18" gradientUnits="userSpaceOnUse">
      <stop offset="0%" stop-color="#3B82F6" stop-opacity="0.85" />
      <stop offset="60%" stop-color="#3B82F6" stop-opacity="0.15" />
      <stop offset="100%" stop-color="#3B82F6" stop-opacity="0" />
    </radialGradient>
  </defs>
  <rect width="32" height="32" rx="8" fill="url(#base)" />
  <rect width="32" height="32" rx="8" fill="url(#hl)" />
  <g transform="translate(4.5,4.5) scale(0.96)">
    <path d="M14.7 6.3a1 1 0 0 0 0 1.4l1.6 1.6a1 1 0 0 0 1.4 0l3.77-3.77a6 6 0 0 1-7.94 7.94l-6.91 6.91a2.12 2.12 0 0 1-3-3l6.91-6.91a6 6 0 0 1 7.94-7.94l-3.76 3.76z" stroke="#fff" stroke-width="2" stroke-linecap="round" stroke-linejoin="round" fill="none"/>
  </g>
</svg>
